<svg width="17" height="13" viewBox="0 0 17 13" fill="none" xmlns="http://www.w3.org/2000/svg">
<path fill-rule="evenodd" clip-rule="evenodd" d="M6.37498 0.833344H14.875C15.6574 0.833344 16.2916 1.46761 16.2916 2.25001V11.4583C16.2916 12.2407 15.6574 12.875 14.875 12.875H6.37498H4.95831H2.12498C1.34258 12.875 0.708313 12.2407 0.708313 11.4583V2.25001C0.708313 1.46761 1.34258 0.833344 2.12498 0.833344H4.95831H6.37498ZM4.95831 2.25001H2.12498V4.37501H4.95831V2.25001ZM6.37498 4.37501V2.25001H14.875V4.37501H6.37498ZM4.95831 5.79168H2.12498V7.91668H4.95831V5.79168ZM6.37498 7.91668V5.79168H14.875V7.91668H6.37498ZM4.95831 9.33334H2.12498V11.4583H4.95831V9.33334ZM6.37498 11.4583V9.33334H14.875V11.4583H6.37498Z" fill="black" fill-opacity="0.58"/>
</svg>
