<svg width="15" height="15" viewBox="0 0 15 15" fill="none" xmlns="http://www.w3.org/2000/svg">
<path fill-rule="evenodd" clip-rule="evenodd" d="M3.60419 6.79167C1.84378 6.79167 0.416687 5.36458 0.416687 3.60417C0.416687 1.84376 1.84378 0.416672 3.60419 0.416672C5.36459 0.416672 6.79169 1.84376 6.79169 3.60417C6.79169 5.36458 5.36459 6.79167 3.60419 6.79167ZM0.416687 11.3958C0.416687 13.1562 1.84378 14.5833 3.60419 14.5833C5.36459 14.5833 6.79169 13.1562 6.79169 11.3958C6.79169 9.63543 5.36459 8.20834 3.60419 8.20834C1.84378 8.20834 0.416687 9.63543 0.416687 11.3958ZM8.20835 11.3958C8.20835 13.1562 9.63545 14.5833 11.3959 14.5833C13.1563 14.5833 14.5834 13.1562 14.5834 11.3958C14.5834 9.63543 13.1563 8.20834 11.3959 8.20834C9.63545 8.20834 8.20835 9.63543 8.20835 11.3958ZM8.20835 3.60417C8.20835 5.36458 9.63545 6.79167 11.3959 6.79167C13.1563 6.79167 14.5834 5.36458 14.5834 3.60417C14.5834 1.84376 13.1563 0.416672 11.3959 0.416672C9.63545 0.416672 8.20835 1.84376 8.20835 3.60417ZM11.3959 5.37501C12.3739 5.37501 13.1667 4.58218 13.1667 3.60417C13.1667 2.62617 12.3739 1.83334 11.3959 1.83334C10.4178 1.83334 9.62502 2.62617 9.62502 3.60417C9.62502 4.58218 10.4178 5.37501 11.3959 5.37501ZM5.37502 3.60417C5.37502 4.58218 4.58219 5.37501 3.60419 5.37501C2.62618 5.37501 1.83335 4.58218 1.83335 3.60417C1.83335 2.62617 2.62618 1.83334 3.60419 1.83334C4.58219 1.83334 5.37502 2.62617 5.37502 3.60417ZM11.3959 13.1667C12.3739 13.1667 13.1667 12.3738 13.1667 11.3958C13.1667 10.4178 12.3739 9.625 11.3959 9.625C10.4178 9.625 9.62502 10.4178 9.62502 11.3958C9.62502 12.3738 10.4178 13.1667 11.3959 13.1667ZM5.37502 11.3958C5.37502 12.3738 4.58219 13.1667 3.60419 13.1667C2.62618 13.1667 1.83335 12.3738 1.83335 11.3958C1.83335 10.4178 2.62618 9.625 3.60419 9.625C4.58219 9.625 5.37502 10.4178 5.37502 11.3958Z" fill="#909090"/>
</svg>
